# xmcd
# 
# Track frame offsets:
#     150
#     13388
#     24732
#     35418
#     46201
#     61401
#     74710
#     88241
#     114626
#     131025
#     149601
#     164423
#     178305
#     190086
#     202182
#     215037
#     229675
#     239523
#     252798
#     262889
#     273036
#     284798
# 
# Disc length: 3922
# 
# Revision: 5
# Processed by: cddbd v1.5.2PL0 Copyright (c) Steve Scherf et al.
# Submitted via: fre:ac v1.0.31
# 
DISCID=650f5016
DTITLE=Various Artist - Country Superstars - Ladies of Country - D2
DYEAR=0
DGENRE=Country
TTITLE0=Lynn Anderson - Rose Garden
TTITLE1=Patsy Cline - The Heart You Break May Be Yours
TTITLE2=Billie Jo Spears - I'm So Lonesome I Could Cry
TTITLE3=Dolly Parton - It Wasn't God Who Made Honkey Tonk Angelsl
TTITLE4=Lynn Anderson - I Was Country When Country Wasn't Cool
TTITLE5=Patsy Cline - If I Could See The World
TTITLE6=Billie Jo Spears - Mr. Walker Its All Over
TTITLE7=Lacy J Dalton - 16th Ave
TTITLE8=Janie Fricke - Always Have, Always Will
TTITLE9=Juice Newton - Angel Of The Morning
TTITLE10=Jeanne Pruett - Satin Sheets
TTITLE11=Lynn Anderson - Cry
TTITLE12=Patsy Cline - Walkin' After Midnight
TTITLE13=Dolly Parton - Makin' Believe
TTITLE14=Billie Jo Spears - He's On The Run Again
TTITLE15=Holly Dunn - Love Someone Like Me
TTITLE16=Lynn Anderson - What A Man My Man Is
TTITLE17=Janie Fricke - He's A Heartache
TTITLE18=Patsy Cline - Walking Dream
TTITLE19=Dolly Parton - Release Me
TTITLE20=Billie Jo Spears - Ease The Want In Me
TTITLE21=Lynn Anderson - Snowbird
EXTD=
EXTT0=
EXTT1=
EXTT2=
EXTT3=
EXTT4=
EXTT5=
EXTT6=
EXTT7=
EXTT8=
EXTT9=
EXTT10=
EXTT11=
EXTT12=
EXTT13=
EXTT14=
EXTT15=
EXTT16=
EXTT17=
EXTT18=
EXTT19=
EXTT20=
EXTT21=
PLAYORDER=
